<?xml version="1.0" encoding="UTF-8" standalone="no"?><!DOCTYPE svg PUBLIC "-//W3C//DTD SVG 1.1//EN" "http://www.w3.org/Graphics/SVG/1.1/DTD/svg11.dtd"><svg width="100%" height="100%" viewBox="0 0 1025 1025" version="1.1" xmlns="http://www.w3.org/2000/svg" xmlns:xlink="http://www.w3.org/1999/xlink" xml:space="preserve" xmlns:serif="http://www.serif.com/" style="fill-rule:evenodd;clip-rule:evenodd;stroke-linejoin:round;stroke-miterlimit:2;"><rect id="Spatialstrates-120--Final-0.2.0" serif:id="Spatialstrates 120° Final 0.2.0" x="0.261" y="0.206" width="1024" height="1024" style="fill:none;"/><clipPath id="_clip1"><rect x="0.261" y="0.206" width="1024" height="1024"/></clipPath><g clip-path="url(#_clip1)"><path d="M1024.26,512.206c-0,282.58 -229.42,512 -512,512c-282.581,-0 -512,-229.42 -512,-512c-0,-282.581 229.419,-512 512,-512c282.58,-0 512,229.419 512,512Z" style="fill:#f2f2f2;"/><g><path d="M628.398,96.865l99.863,47.118l-332.138,156.713l-99.862,-47.118l332.137,-156.713Z" style="fill:#6b6b70;"/><path d="M728.261,143.983l-0,125.37l-332.138,156.713l0,-125.37l332.138,-156.713Z" style="fill:#18161d;"/><path d="M728.261,645.464l-0,125.37l-332.138,156.713l0,-125.371l332.138,-156.712Z" style="fill:#18161d;"/><path d="M528.978,645.255l99.863,47.118l-232.718,109.803l-99.862,-47.118l232.717,-109.803Z" style="fill:#6b6b70;"/><path d="M396.123,802.176l0,125.371l-99.862,-47.119l-0,-125.37l99.862,47.118Z" style="fill:#fe5000;"/><path d="M628.62,441.737l99.641,-47.014l-0,376.111l-99.641,47.014l-0,-376.111Z" style="fill:#18161d;"/><path d="M628.62,567.107l-0,125.162l-99.642,-47.014l0,-125.161l99.642,47.013Z" style="fill:#4d4d51;"/><path d="M728.261,394.723l-0,125.371l-332.138,156.712l0,-125.37l332.138,-156.713Z" style="fill:#18161d;"/><path d="M628.62,347.71l99.641,47.013l-232.496,109.699l-99.642,-47.014l232.497,-109.698Z" style="fill:#6b6b70;"/><path d="M396.123,300.696l99.642,-47.014l-0,376.11l-99.642,47.014l0,-376.11Z" style="fill:#18161d;"/><path d="M296.261,253.578l99.862,47.118l0,376.11l-99.862,-47.118l-0,-376.11Z" style="fill:#4d4d51;"/></g></g></svg>